<svg width="32" height="32" viewBox="0 0 32 32" fill="none" xmlns="http://www.w3.org/2000/svg">
<path d="M0 8C0 3.58172 3.58172 0 8 0H24C28.4183 0 32 3.58172 32 8V24C32 28.4183 28.4183 32 24 32H8C3.58172 32 0 28.4183 0 24V8Z" fill="black"/>
<path d="M18.3536 11.1464C18.5488 11.3417 18.5488 11.6583 18.3536 11.8536L14.2071 16L18.3536 20.1464C18.5488 20.3417 18.5488 20.6583 18.3536 20.8536C18.1583 21.0488 17.8417 21.0488 17.6464 20.8536L13.1464 16.3536C12.9512 16.1583 12.9512 15.8417 13.1464 15.6464L17.6464 11.1464C17.8417 10.9512 18.1583 10.9512 18.3536 11.1464Z" fill="white"/>
</svg>
