<svg width="20" height="20" viewBox="0 0 20 20" fill="none" xmlns="http://www.w3.org/2000/svg">
<g id="Arrow Sort">
<path id="Shape" d="M6.85355 4.14645C6.65829 3.95118 6.34171 3.95118 6.14645 4.14645L3.14645 7.14645C2.95118 7.34171 2.95118 7.65829 3.14645 7.85355C3.34171 8.04882 3.65829 8.04882 3.85355 7.85355L6 5.70711V15.5C6 15.7761 6.22386 16 6.5 16C6.77614 16 7 15.7761 7 15.5V5.70711L9.14645 7.85355C9.34171 8.04882 9.65829 8.04882 9.85355 7.85355C10.0488 7.65829 10.0488 7.34171 9.85355 7.14645L6.85355 4.14645ZM13.1525 15.8595C13.3463 16.0468 13.6537 16.0468 13.8475 15.8595L16.8475 12.9594C17.0461 12.7675 17.0514 12.4509 16.8595 12.2524C16.6676 12.0538 16.351 12.0485 16.1525 12.2404L14 14.3212L14 4.5001C14 4.22395 13.7761 4.0001 13.5 4.0001C13.2239 4.0001 13 4.22395 13 4.5001L13 14.3212L10.8475 12.2404C10.649 12.0485 10.3324 12.0538 10.1405 12.2524C9.94858 12.4509 9.95394 12.7675 10.1525 12.9594L13.1525 15.8595Z" fill="white"/>
</g>
</svg>
