<svg width="16" height="16" viewBox="0 0 16 16" fill="none" xmlns="http://www.w3.org/2000/svg">
<g id="Heart">
<path id="Shape" d="M7.54118 3.94779C6.26949 2.6761 4.21213 2.66992 2.94594 3.93611C1.67975 5.20231 1.68593 7.25966 2.95762 8.53136L7.66511 13.2389C7.86038 13.4341 8.17696 13.4341 8.37222 13.2389L13.0553 8.55858C14.3185 7.28827 14.3145 5.23668 13.0426 3.96476C11.7686 2.69079 9.7103 2.68461 8.44184 3.95306L7.99458 4.40119L7.54118 3.94779ZM12.3462 7.85345L8.01867 12.1782L3.66473 7.82425C2.78261 6.94213 2.77833 5.51794 3.65305 4.64322C4.52776 3.76851 5.95196 3.77278 6.83408 4.6549L7.64343 5.46426C7.84203 5.66285 8.1652 5.65896 8.35895 5.45564L9.14895 4.66017C10.0259 3.78319 11.4511 3.78747 12.3355 4.67187C13.2178 5.5542 13.2206 6.97415 12.3462 7.85345Z" fill="white"/>
</g>
</svg>
