<svg width="20" height="20" viewBox="0 0 20 20" fill="none" xmlns="http://www.w3.org/2000/svg">
<g id="Person Circle" clip-path="url(#clip0_2142_2172)">
<path id="Shape" d="M15 11.5C15 10.6716 14.3284 10 13.5 10H6.5C5.67157 10 5 10.6716 5 11.5V12C5 13.9714 6.85951 16 10 16C13.1405 16 15 13.9714 15 12V11.5ZM12.75 6.25C12.75 4.73122 11.5188 3.5 10 3.5C8.48122 3.5 7.25 4.73122 7.25 6.25C7.25 7.76878 8.48122 9 10 9C11.5188 9 12.75 7.76878 12.75 6.25ZM20 10C20 15.5228 15.5228 20 10 20C4.47715 20 0 15.5228 0 10C0 4.47715 4.47715 0 10 0C15.5228 0 20 4.47715 20 10ZM18.5 10C18.5 5.30558 14.6944 1.5 10 1.5C5.30558 1.5 1.5 5.30558 1.5 10C1.5 14.6944 5.30558 18.5 10 18.5C14.6944 18.5 18.5 14.6944 18.5 10Z" fill="black"/>
</g>
<defs>
<clipPath id="clip0_2142_2172">
<rect width="20" height="20" fill="white"/>
</clipPath>
</defs>
</svg>
