<svg width="128" height="129" viewBox="0 0 128 129" fill="none" xmlns="http://www.w3.org/2000/svg">
<path id="Vector" d="M46.0962 12.4413H77.4157C78.5499 12.4413 79.4572 13.3324 79.4572 14.4342V56.4473C79.4487 56.9817 79.2293 57.491 78.8469 57.8643C78.4645 58.2376 77.9501 58.4446 77.4157 58.4403H50.5843C42.6856 58.4403 36.2775 64.6782 36.2775 72.3744V81.7881C36.2626 82.3196 36.0394 82.8239 35.6559 83.1922C35.2724 83.5606 34.7595 83.7633 34.2279 83.7567H14.3149C13.7792 83.7632 13.2626 83.5571 12.8785 83.1836C12.4943 82.8101 12.2739 82.2996 12.2653 81.7638V49.7314C12.2739 49.1971 12.4932 48.6878 12.8756 48.3145C13.258 47.9412 13.7725 47.7341 14.3068 47.7385H63.838C67.2243 47.7385 69.9706 45.0651 69.9706 41.7679C69.9611 40.9724 69.7949 40.1867 69.4814 39.4556C69.168 38.7245 68.7134 38.0623 68.1439 37.507C67.5743 36.9517 66.9008 36.5142 66.1619 36.2194C65.4231 35.9246 64.6334 35.7784 63.838 35.7891H44.0466V14.4342C44.0551 13.8984 44.2756 13.3879 44.6598 13.0144C45.0439 12.6408 45.5604 12.4348 46.0962 12.4413ZM91.7225 33.4398V14.4342C91.7225 6.73798 85.3225 0.5 77.4157 0.5H46.0962C38.1894 0.5 31.7813 6.73798 31.7813 14.4342V35.7891H14.3149C6.4 35.7891 0 42.0271 0 49.7233V81.7638C0 89.46 6.4 95.698 14.3068 95.698H34.236C34.9246 95.698 35.6132 95.6494 36.2775 95.5603V114.566C36.2775 122.262 42.6775 128.5 50.5843 128.5H81.9038C89.8106 128.5 96.2188 122.262 96.2188 114.566V93.2109H113.685C121.592 93.2109 128 86.9729 128 79.2767V47.2281C128 39.5319 121.6 33.2939 113.685 33.2939H93.7722C93.0754 33.2939 92.3949 33.3425 91.7225 33.4398ZM48.5428 81.8367V72.5527C48.5513 72.0183 48.7707 71.509 49.1531 71.1357C49.5355 70.7624 50.0499 70.5554 50.5843 70.5598H77.4157C85.3225 70.5598 91.7225 64.3218 91.7225 56.6256V47.2119C91.7374 46.6804 91.9606 46.1761 92.3441 45.8078C92.7276 45.4395 93.2405 45.2367 93.7722 45.2433H113.685C114.819 45.2433 115.735 46.1344 115.735 47.2362V79.2686C115.726 79.8029 115.507 80.3122 115.124 80.6855C114.742 81.0588 114.228 81.2659 113.693 81.2615H64.162C63.3673 81.2508 62.5782 81.3968 61.8399 81.691C61.1016 81.9853 60.4285 82.4221 59.859 82.9766C59.2895 83.531 58.8348 84.1922 58.5209 84.9224C58.207 85.6526 58.0399 86.4374 58.0294 87.2322C58.0294 90.5375 60.7757 93.2109 64.162 93.2109H83.9453V114.566C83.9368 115.102 83.7163 115.612 83.3321 115.986C82.948 116.359 82.4315 116.565 81.8957 116.559H50.5843C50.0499 116.563 49.5355 116.356 49.1531 115.983C48.7707 115.609 48.5513 115.1 48.5428 114.566V81.8367Z" fill="white"/>
</svg>
